M48
; DRILL file {KiCad 9.0.0} date 2025-08-18T13:12:09+0300
; FORMAT={-:-/ absolute / metric / decimal}
; #@! TF.CreationDate,2025-08-18T13:12:09+03:00
; #@! TF.GenerationSoftware,Kicad,Pcbnew,9.0.0
; #@! TF.FileFunction,Plated,1,2,PTH
FMAT,2
METRIC
; #@! TA.AperFunction,Plated,PTH,ViaDrill
T1C0.200
; #@! TA.AperFunction,Plated,PTH,ComponentDrill
T2C0.600
; #@! TA.AperFunction,Plated,PTH,ComponentDrill
T3C0.850
; #@! TA.AperFunction,Plated,PTH,ComponentDrill
T4C1.190
%
G90
G05
T1
X101.45Y-76.35
X101.5Y-81.5
X101.75Y-88.6
X102.0Y-94.65
X102.25Y-107.5
X102.45Y-100.0
X104.65Y-108.6
X105.45Y-99.8
X105.5Y-104.6
X106.0Y-102.85
X106.05Y-101.05
X106.6Y-110.6
X107.25Y-100.65
X107.4Y-112.85
X107.45Y-78.65
X107.45Y-89.05
X107.65Y-72.65
X107.75Y-76.2
X107.8Y-95.7
X108.1Y-97.55
X108.2Y-88.05
X108.35Y-101.9
X108.35Y-109.95
X108.4Y-102.9
X108.4Y-110.85
X108.6Y-71.15
X108.65Y-98.8
X108.9Y-96.85
X108.95Y-111.45
X109.0Y-78.55
X109.05Y-73.4
X109.05Y-95.45
X109.1Y-81.55
X109.15Y-113.8
X109.2Y-86.8
X109.5Y-76.15
X109.5Y-108.05
X109.5Y-112.05
X109.55Y-94.55
X109.6Y-69.1
X109.6Y-102.25
X109.8Y-85.75
X109.85Y-81.5
X109.85Y-84.75
X109.85Y-87.1
X110.05Y-81.05
X110.15Y-112.6
X110.3Y-71.55
X110.65Y-96.85
X110.7Y-80.8
X110.7Y-96.05
X110.7Y-100.45
X110.75Y-107.4
X110.75Y-114.05
X110.8Y-81.5
X110.85Y-102.7
X110.9Y-78.3
X110.95Y-98.7
X111.1Y-112.6
X111.15Y-97.85
X111.15Y-109.05
X111.4Y-99.6
X111.55Y-96.9
X111.65Y-77.2
X111.75Y-115.8
X111.8Y-95.75
X111.8Y-106.6
X111.8Y-108.5
X111.95Y-119.45
X112.05Y-98.35
X112.05Y-117.7
X112.25Y-78.35
X112.5Y-93.05
X112.65Y-91.55
X112.65Y-100.2
X112.75Y-101.2
X113.05Y-77.85
X113.1Y-85.95
X113.1Y-98.25
X113.2Y-76.55
X113.2Y-86.65
X113.2Y-120.55
X113.4Y-69.1
X113.5Y-91.55
X113.5Y-111.6
X113.65Y-74.95
X113.95Y-99.4
X114.0Y-70.4
X114.0Y-89.85
X114.05Y-82.0
X114.05Y-107.8
X114.1Y-77.75
X114.15Y-102.4
X114.25Y-76.25
X114.25Y-78.55
X114.3Y-67.25
X114.3Y-112.3
X114.35Y-111.5
X114.35Y-121.5
X114.4Y-71.9
X114.7Y-107.15
X114.75Y-75.9
X114.8Y-109.6
X114.85Y-108.1
X115.0Y-94.2
X115.1Y-100.75
X115.2Y-65.5
X115.2Y-65.5
X115.2Y-98.05
X115.25Y-78.55
X115.3Y-108.4
X115.35Y-104.6
X115.6Y-118.8
X115.75Y-108.8
X115.85Y-69.25
X115.9Y-111.85
X116.05Y-87.25
X116.05Y-118.65
X116.1Y-102.6
X116.2Y-75.0
X116.2Y-94.15
X116.4Y-84.85
X116.4Y-112.05
X116.5Y-90.3
X116.5Y-109.1
X116.55Y-98.95
X116.55Y-100.15
X116.65Y-101.55
X116.85Y-118.7
X116.95Y-79.65
X117.25Y-122.15
X117.4Y-102.0
X117.45Y-89.5
X117.45Y-118.65
X118.2Y-82.75
X118.25Y-87.85
X118.25Y-106.15
X118.25Y-118.6
X118.4Y-64.4
X118.4Y-74.9
X118.4Y-85.15
X118.45Y-98.5
X118.5Y-86.85
X118.65Y-80.4
X118.7Y-71.5
X118.7Y-99.9
X118.7Y-118.35
X118.7Y-118.85
X118.75Y-119.4
X118.85Y-92.25
X118.9Y-86.0
X118.9Y-107.5
X118.95Y-80.7
X119.15Y-87.15
X119.35Y-83.25
X119.4Y-113.95
X119.45Y-104.8
X119.5Y-109.3
X119.55Y-85.35
X119.6Y-86.55
X119.6Y-106.0
X119.8Y-87.45
X119.9Y-113.95
X119.95Y-101.15
X120.1Y-85.8
X120.26Y-79.16
X120.3Y-102.55
X120.35Y-113.95
X120.55Y-87.25
X120.65Y-74.9
X120.65Y-122.1
X120.7Y-89.85
X120.7Y-101.9
X120.75Y-96.15
X120.8Y-99.8
X120.85Y-114.1
X120.95Y-86.6
X120.95Y-87.85
X121.0Y-76.9
X121.3Y-108.4
X121.45Y-64.1
X121.45Y-102.6
X121.45Y-107.5
X121.6Y-75.1
X121.7Y-110.85
X122.05Y-115.35
X122.1Y-101.4
X122.15Y-105.7
X122.15Y-108.4
X122.2Y-98.05
X122.35Y-88.95
X122.45Y-92.95
X122.7Y-80.2
X123.3Y-71.2
X123.35Y-96.2
X123.45Y-99.75
X123.75Y-101.3
X124.1Y-122.7
X124.25Y-64.5
X124.325Y-77.825
X124.5Y-71.3
X124.5Y-102.25
X124.65Y-73.6
X125.1Y-109.95
X125.3Y-101.5
X125.4Y-75.15
X125.4Y-106.4
X125.6Y-84.45
X125.65Y-86.6
X125.85Y-77.6
X126.25Y-100.45
X126.35Y-111.35
X126.6Y-105.2
X126.85Y-64.1
X127.4Y-76.35
X127.55Y-79.7
X127.6Y-82.7
X127.85Y-75.4
X128.05Y-73.1
X128.35Y-122.1
X128.4Y-70.85
X128.6Y-97.1
X128.7Y-78.6
X128.7Y-81.45
X128.7Y-98.2
X128.75Y-86.3
X128.8Y-95.1
X129.65Y-77.85
X130.0Y-63.8
X130.35Y-110.6
X130.5Y-96.95
X130.6Y-95.35
X130.6Y-98.25
X131.65Y-107.8
X132.15Y-123.05
X132.35Y-71.55
X133.35Y-63.9
X136.3Y-64.1
X136.8Y-71.2
X138.8Y-64.0
X139.2Y-98.3
X139.2Y-99.85
X139.25Y-86.45
X139.5Y-96.05
X139.8Y-86.05
X139.85Y-93.75
X139.95Y-65.05
X140.2Y-85.7
X140.25Y-82.05
X140.45Y-92.05
X140.6Y-82.5
X140.65Y-103.1
X140.65Y-122.3
X140.8Y-85.4
X141.0Y-66.45
X141.15Y-82.7
X141.5Y-85.3
X141.7Y-82.7
X141.75Y-85.75
X141.75Y-91.0
X141.85Y-68.05
X142.0Y-86.2
X142.2Y-86.6
X142.25Y-82.7
X142.5Y-87.15
X142.65Y-70.3
X142.75Y-82.4
X142.95Y-72.65
X143.0Y-106.0
X143.2Y-82.1
X143.2Y-90.45
X143.3Y-120.95
X143.5Y-74.7
X143.5Y-81.7
X144.35Y-76.1
X144.55Y-107.55
X145.3Y-120.05
X145.75Y-108.95
X146.15Y-77.8
X146.9Y-118.95
X147.1Y-110.05
X147.5Y-79.55
X148.15Y-118.05
X148.35Y-90.55
X148.85Y-111.55
X149.25Y-116.95
X149.75Y-112.55
X149.85Y-115.5
X149.9Y-113.9
X150.55Y-81.35
X151.8Y-90.85
X154.75Y-90.95
X155.15Y-82.35
X157.1Y-92.35
X157.75Y-84.65
X158.3Y-82.05
X158.4Y-94.15
X158.95Y-85.75
X159.55Y-96.65
X160.8Y-81.0
X161.1Y-97.25
X162.7Y-98.9
X163.4Y-81.25
X164.2Y-99.8
X165.6Y-81.95
X165.75Y-98.85
X166.4Y-96.15
X166.6Y-84.35
X167.1Y-92.9
X167.65Y-87.5
X167.65Y-90.3
T3
X103.19Y-74.815
X103.19Y-76.815
X103.19Y-78.815
X103.19Y-80.815
X103.19Y-82.815
X103.19Y-84.815
X103.19Y-86.815
X103.19Y-88.815
X103.19Y-90.815
X103.19Y-92.815
X103.19Y-94.815
X103.19Y-96.815
X105.19Y-74.815
X105.19Y-76.815
X105.19Y-78.815
X105.19Y-80.815
X105.19Y-82.815
X105.19Y-84.815
X105.19Y-86.815
X105.19Y-88.815
X105.19Y-90.815
X105.19Y-92.815
X105.19Y-94.815
X105.19Y-96.815
X117.11Y-66.73
X117.11Y-68.73
X119.11Y-66.73
X119.11Y-68.73
X121.11Y-66.73
X121.11Y-68.73
X123.11Y-66.73
X123.11Y-68.73
X125.11Y-66.73
X125.11Y-68.73
X127.11Y-66.73
X127.11Y-68.73
X129.11Y-66.73
X129.11Y-68.73
X131.11Y-66.73
X131.11Y-68.73
X133.11Y-66.73
X133.11Y-68.73
X135.11Y-66.73
X135.11Y-68.73
X135.33Y-74.705
X135.33Y-76.705
X135.33Y-78.705
X135.33Y-80.705
X135.33Y-82.705
X135.33Y-84.705
X135.33Y-86.705
X135.33Y-88.705
X135.33Y-90.705
X135.33Y-92.705
X135.33Y-94.705
X135.33Y-96.705
X137.11Y-66.73
X137.11Y-68.73
X137.33Y-74.705
X137.33Y-76.705
X137.33Y-78.705
X137.33Y-80.705
X137.33Y-82.705
X137.33Y-84.705
X137.33Y-86.705
X137.33Y-88.705
X137.33Y-90.705
X137.33Y-92.705
X137.33Y-94.705
X137.33Y-96.705
X139.11Y-66.73
X139.11Y-68.73
T4
X127.852Y-109.38
X129.648Y-107.584
X131.444Y-105.788
X133.24Y-103.992
T2
G00X104.393Y-110.438
M15
G01X103.827Y-111.003
M16
G05
G00X107.455Y-107.376
M15
G01X106.677Y-108.154
M16
G05
G00X110.502Y-116.547
M15
G01X109.937Y-117.113
M16
G05
G00X113.564Y-113.485
M15
G01X112.786Y-114.263
M16
G05
M30
