%TF.GenerationSoftware,KiCad,Pcbnew,9.0.0*%
%TF.CreationDate,2025-08-18T13:12:07+03:00*%
%TF.ProjectId,RP2350A_Dev_board,52503233-3530-4415-9f44-65765f626f61,rev?*%
%TF.SameCoordinates,Original*%
%TF.FileFunction,Paste,Top*%
%TF.FilePolarity,Positive*%
%FSLAX46Y46*%
G04 Gerber Fmt 4.6, Leading zero omitted, Abs format (unit mm)*
G04 Created by KiCad (PCBNEW 9.0.0) date 2025-08-18 13:12:07*
%MOMM*%
%LPD*%
G01*
G04 APERTURE LIST*
G04 Aperture macros list*
%AMRoundRect*
0 Rectangle with rounded corners*
0 $1 Rounding radius*
0 $2 $3 $4 $5 $6 $7 $8 $9 X,Y pos of 4 corners*
0 Add a 4 corners polygon primitive as box body*
4,1,4,$2,$3,$4,$5,$6,$7,$8,$9,$2,$3,0*
0 Add four circle primitives for the rounded corners*
1,1,$1+$1,$2,$3*
1,1,$1+$1,$4,$5*
1,1,$1+$1,$6,$7*
1,1,$1+$1,$8,$9*
0 Add four rect primitives between the rounded corners*
20,1,$1+$1,$2,$3,$4,$5,0*
20,1,$1+$1,$4,$5,$6,$7,0*
20,1,$1+$1,$6,$7,$8,$9,0*
20,1,$1+$1,$8,$9,$2,$3,0*%
%AMHorizOval*
0 Thick line with rounded ends*
0 $1 width*
0 $2 $3 position (X,Y) of the first rounded end (center of the circle)*
0 $4 $5 position (X,Y) of the second rounded end (center of the circle)*
0 Add line between two ends*
20,1,$1,$2,$3,$4,$5,0*
0 Add two circle primitives to create the rounded ends*
1,1,$1,$2,$3*
1,1,$1,$4,$5*%
G04 Aperture macros list end*
%ADD10RoundRect,0.225000X0.225000X0.250000X-0.225000X0.250000X-0.225000X-0.250000X0.225000X-0.250000X0*%
%ADD11R,0.850000X0.200000*%
%ADD12R,0.200000X0.850000*%
%ADD13R,3.450000X3.450000*%
%ADD14RoundRect,0.067500X0.067500X0.067500X-0.067500X0.067500X-0.067500X-0.067500X0.067500X-0.067500X0*%
%ADD15RoundRect,0.140000X-0.206244X-0.077224X0.036244X-0.217224X0.206244X0.077224X-0.036244X0.217224X0*%
%ADD16RoundRect,0.225000X-0.225000X-0.250000X0.225000X-0.250000X0.225000X0.250000X-0.225000X0.250000X0*%
%ADD17RoundRect,0.218750X-0.218750X-0.256250X0.218750X-0.256250X0.218750X0.256250X-0.218750X0.256250X0*%
%ADD18R,0.700000X0.250000*%
%ADD19R,0.250000X0.700000*%
%ADD20R,1.100000X0.250000*%
%ADD21RoundRect,0.135000X0.185000X-0.135000X0.185000X0.135000X-0.185000X0.135000X-0.185000X-0.135000X0*%
%ADD22R,1.050000X0.650000*%
%ADD23RoundRect,0.067500X0.067500X-0.067500X0.067500X0.067500X-0.067500X0.067500X-0.067500X-0.067500X0*%
%ADD24R,1.400000X1.200000*%
%ADD25RoundRect,0.225000X0.250000X-0.225000X0.250000X0.225000X-0.250000X0.225000X-0.250000X-0.225000X0*%
%ADD26RoundRect,0.140000X-0.036244X-0.217224X0.206244X-0.077224X0.036244X0.217224X-0.206244X0.077224X0*%
%ADD27RoundRect,0.067500X0.000000X0.095459X-0.095459X0.000000X0.000000X-0.095459X0.095459X0.000000X0*%
%ADD28RoundRect,0.140000X0.140000X0.170000X-0.140000X0.170000X-0.140000X-0.170000X0.140000X-0.170000X0*%
%ADD29RoundRect,0.140000X0.170000X-0.140000X0.170000X0.140000X-0.170000X0.140000X-0.170000X-0.140000X0*%
%ADD30RoundRect,0.218750X-0.256250X0.218750X-0.256250X-0.218750X0.256250X-0.218750X0.256250X0.218750X0*%
%ADD31RoundRect,0.067500X-0.067500X0.067500X-0.067500X-0.067500X0.067500X-0.067500X0.067500X0.067500X0*%
%ADD32RoundRect,0.025500X0.412950X0.088388X0.088388X0.412950X-0.412950X-0.088388X-0.088388X-0.412950X0*%
%ADD33RoundRect,0.225000X-0.017678X0.335876X-0.335876X0.017678X0.017678X-0.335876X0.335876X-0.017678X0*%
%ADD34RoundRect,0.140000X-0.140000X-0.170000X0.140000X-0.170000X0.140000X0.170000X-0.140000X0.170000X0*%
%ADD35RoundRect,0.135000X-0.135000X-0.185000X0.135000X-0.185000X0.135000X0.185000X-0.135000X0.185000X0*%
%ADD36RoundRect,0.150000X0.256326X0.468458X-0.468458X-0.256326X-0.256326X-0.468458X0.468458X0.256326X0*%
%ADD37RoundRect,0.250000X-1.600000X0.600000X-1.600000X-0.600000X1.600000X-0.600000X1.600000X0.600000X0*%
%ADD38RoundRect,0.250000X0.435000X0.615000X-0.435000X0.615000X-0.435000X-0.615000X0.435000X-0.615000X0*%
%ADD39RoundRect,0.125000X0.250000X0.125000X-0.250000X0.125000X-0.250000X-0.125000X0.250000X-0.125000X0*%
%ADD40RoundRect,0.150000X-0.406586X-0.194454X-0.194454X-0.406586X0.406586X0.194454X0.194454X0.406586X0*%
%ADD41RoundRect,0.075000X-0.406586X-0.300520X-0.300520X-0.406586X0.406586X0.300520X0.300520X0.406586X0*%
%ADD42HorizOval,1.000000X-0.388909X-0.388909X0.388909X0.388909X0*%
%ADD43HorizOval,1.000000X-0.282843X-0.282843X0.282843X0.282843X0*%
%ADD44RoundRect,0.225000X-0.250000X0.225000X-0.250000X-0.225000X0.250000X-0.225000X0.250000X0.225000X0*%
G04 APERTURE END LIST*
D10*
%TO.C,C16*%
X124700000Y-93550000D03*
X123150000Y-93550000D03*
%TD*%
D11*
%TO.C,DD1*%
X124610000Y-90260000D03*
X124610000Y-89860000D03*
X124610000Y-89460000D03*
X124610000Y-89060000D03*
X124610000Y-88660000D03*
X124610000Y-88260000D03*
X124610000Y-87860000D03*
X124610000Y-87460000D03*
X124610000Y-87060000D03*
X124610000Y-86660000D03*
X124610000Y-86260000D03*
X124610000Y-85860000D03*
X124610000Y-85460000D03*
X124610000Y-85060000D03*
X124610000Y-84660000D03*
X124610000Y-84260000D03*
X124610000Y-83860000D03*
X124610000Y-83460000D03*
X124610000Y-83060000D03*
X124610000Y-82660000D03*
D12*
X123460000Y-81510000D03*
X123060000Y-81510000D03*
X122660000Y-81510000D03*
X122260000Y-81510000D03*
X121860000Y-81510000D03*
X121460000Y-81510000D03*
X121060000Y-81510000D03*
X120660000Y-81510000D03*
X120260000Y-81510000D03*
X119860000Y-81510000D03*
X119460000Y-81510000D03*
X119060000Y-81510000D03*
X118660000Y-81510000D03*
X118260000Y-81510000D03*
X117860000Y-81510000D03*
X117460000Y-81510000D03*
X117060000Y-81510000D03*
X116660000Y-81510000D03*
X116260000Y-81510000D03*
X115860000Y-81510000D03*
D11*
X114710000Y-82660000D03*
X114710000Y-83060000D03*
X114710000Y-83460000D03*
X114710000Y-83860000D03*
X114710000Y-84260000D03*
X114710000Y-84660000D03*
X114710000Y-85060000D03*
X114710000Y-85460000D03*
X114710000Y-85860000D03*
X114710000Y-86260000D03*
X114710000Y-86660000D03*
X114710000Y-87060000D03*
X114710000Y-87460000D03*
X114710000Y-87860000D03*
X114710000Y-88260000D03*
X114710000Y-88660000D03*
X114710000Y-89060000D03*
X114710000Y-89460000D03*
X114710000Y-89860000D03*
X114710000Y-90260000D03*
D12*
X115860000Y-91410000D03*
X116260000Y-91410000D03*
X116660000Y-91410000D03*
X117060000Y-91410000D03*
X117460000Y-91410000D03*
X117860000Y-91410000D03*
X118260000Y-91410000D03*
X118660000Y-91410000D03*
X119060000Y-91410000D03*
X119460000Y-91410000D03*
X119860000Y-91410000D03*
X120260000Y-91410000D03*
X120660000Y-91410000D03*
X121060000Y-91410000D03*
X121460000Y-91410000D03*
X121860000Y-91410000D03*
X122260000Y-91410000D03*
X122660000Y-91410000D03*
X123060000Y-91410000D03*
X123460000Y-91410000D03*
D13*
X119660000Y-86460000D03*
%TD*%
D14*
%TO.C,R3*%
X114365000Y-110470000D03*
X113815000Y-110470000D03*
%TD*%
D15*
%TO.C,C21*%
X115268616Y-112470000D03*
X116100000Y-112950000D03*
%TD*%
D10*
%TO.C,C14*%
X113300000Y-90050000D03*
X111750000Y-90050000D03*
%TD*%
D16*
%TO.C,C3*%
X110875000Y-86800000D03*
X112425000Y-86800000D03*
%TD*%
D17*
%TO.C,D3*%
X101375000Y-104640000D03*
X102950000Y-104640000D03*
%TD*%
D18*
%TO.C,DD5*%
X120640000Y-116700100D03*
X120640000Y-116250000D03*
D19*
X120440100Y-115574900D03*
X119990100Y-115574900D03*
X119540000Y-115574900D03*
D20*
X119540000Y-116250000D03*
X119540000Y-116700100D03*
%TD*%
D21*
%TO.C,R14*%
X121550000Y-118570000D03*
X121550000Y-117550000D03*
%TD*%
D22*
%TO.C,SW2*%
X160175000Y-89495000D03*
X164325000Y-89495000D03*
X160175000Y-91645000D03*
X164325000Y-91645000D03*
%TD*%
D23*
%TO.C,R8*%
X159000000Y-89975000D03*
X159000000Y-89425000D03*
%TD*%
D24*
%TO.C,Y1*%
X117650000Y-77750000D03*
X119850000Y-77750000D03*
X119850000Y-76050000D03*
X117650000Y-76050000D03*
%TD*%
D17*
%TO.C,L2*%
X110162500Y-94550000D03*
X111737500Y-94550000D03*
%TD*%
D25*
%TO.C,C8*%
X118850000Y-94350000D03*
X118850000Y-92800000D03*
%TD*%
D21*
%TO.C,R13*%
X121550000Y-116660000D03*
X121550000Y-115640000D03*
%TD*%
D16*
%TO.C,C12*%
X110875000Y-85300000D03*
X112425000Y-85300000D03*
%TD*%
D25*
%TO.C,C2*%
X121600000Y-77600000D03*
X121600000Y-76050000D03*
%TD*%
D10*
%TO.C,C5*%
X127750000Y-84350000D03*
X126200000Y-84350000D03*
%TD*%
D26*
%TO.C,C23*%
X115234308Y-111240000D03*
X116065692Y-110760000D03*
%TD*%
D10*
%TO.C,C13*%
X111750000Y-93050000D03*
X110200000Y-93050000D03*
%TD*%
D25*
%TO.C,C9*%
X114699998Y-96612501D03*
X114699998Y-95062501D03*
%TD*%
D16*
%TO.C,C10*%
X111700000Y-81250000D03*
X113250000Y-81250000D03*
%TD*%
D27*
%TO.C,R2*%
X112064454Y-109155546D03*
X111675546Y-109544454D03*
%TD*%
%TO.C,R1*%
X112584454Y-109675546D03*
X112195546Y-110064454D03*
%TD*%
D28*
%TO.C,C17*%
X119190000Y-114620000D03*
X118230000Y-114620000D03*
%TD*%
D29*
%TO.C,C20*%
X117150000Y-112330000D03*
X117150000Y-111370000D03*
%TD*%
D30*
%TO.C,L1*%
X113200000Y-95050000D03*
X113200002Y-96625002D03*
%TD*%
D31*
%TO.C,R6*%
X158950000Y-84675000D03*
X158950000Y-85225000D03*
%TD*%
D32*
%TO.C,FL1*%
X117980869Y-104464308D03*
X116800000Y-105645177D03*
X117365686Y-103849125D03*
X116184817Y-105029994D03*
%TD*%
D10*
%TO.C,C4*%
X127800000Y-86650000D03*
X126250000Y-86650000D03*
%TD*%
%TO.C,C11*%
X126250000Y-76550000D03*
X124700000Y-76550000D03*
%TD*%
D33*
%TO.C,C6*%
X124998008Y-78351992D03*
X123901992Y-79448008D03*
%TD*%
D34*
%TO.C,C19*%
X119350000Y-117450000D03*
X120310000Y-117450000D03*
%TD*%
D35*
%TO.C,R5*%
X120090000Y-114620000D03*
X121110000Y-114620000D03*
%TD*%
D34*
%TO.C,C22*%
X119350000Y-119350000D03*
X120310000Y-119350000D03*
%TD*%
D14*
%TO.C,R9*%
X104640000Y-101050000D03*
X104090000Y-101050000D03*
%TD*%
D36*
%TO.C,U2*%
X115810419Y-107363083D03*
X115138668Y-106691332D03*
X114466917Y-106019581D03*
X112858249Y-107628249D03*
X113530000Y-108300000D03*
X114201751Y-108971751D03*
%TD*%
D14*
%TO.C,R10*%
X104640000Y-102870000D03*
X104090000Y-102870000D03*
%TD*%
D25*
%TO.C,C1*%
X116199998Y-96612501D03*
X116199998Y-95062501D03*
%TD*%
D37*
%TO.C,L4*%
X116600000Y-117200000D03*
X116600000Y-119900000D03*
%TD*%
D17*
%TO.C,D1*%
X101375000Y-101080000D03*
X102950000Y-101080000D03*
%TD*%
D14*
%TO.C,R11*%
X104640000Y-104640000D03*
X104090000Y-104640000D03*
%TD*%
D34*
%TO.C,C18*%
X119350000Y-118400000D03*
X120310000Y-118400000D03*
%TD*%
D38*
%TO.C,U1*%
X122950000Y-99075000D03*
X122950000Y-96925000D03*
X121250000Y-99075000D03*
X121250000Y-96925000D03*
D39*
X124800000Y-99905000D03*
X124800000Y-98635000D03*
X124800000Y-97365000D03*
X124800000Y-96095000D03*
X119400000Y-96095000D03*
X119400000Y-97365000D03*
X119400000Y-98635000D03*
X119400000Y-99905000D03*
%TD*%
D40*
%TO.C,J5*%
X108264350Y-108150166D03*
X108830036Y-108715852D03*
D41*
X109643208Y-109529025D03*
X110350315Y-110236131D03*
X110703869Y-110589685D03*
X111410975Y-111296792D03*
D40*
X112224148Y-112109964D03*
X112789834Y-112675650D03*
X112789834Y-112675650D03*
X112224148Y-112109964D03*
D41*
X111764529Y-111650345D03*
X111057422Y-110943238D03*
X109996762Y-109882578D03*
X109289655Y-109175471D03*
D40*
X108830036Y-108715852D03*
X108264350Y-108150166D03*
D42*
X107065804Y-107764793D03*
D43*
X104110098Y-110720499D03*
D42*
X113175207Y-113874196D03*
D43*
X110219501Y-116829902D03*
%TD*%
D31*
%TO.C,R4*%
X111370000Y-107475000D03*
X111370000Y-108025000D03*
%TD*%
D17*
%TO.C,D2*%
X101375000Y-102870000D03*
X102950000Y-102870000D03*
%TD*%
D31*
%TO.C,R7*%
X126300000Y-99325000D03*
X126300000Y-99875000D03*
%TD*%
D22*
%TO.C,SW1*%
X160175000Y-84745000D03*
X164325000Y-84745000D03*
X160175000Y-86895000D03*
X164325000Y-86895000D03*
%TD*%
D44*
%TO.C,C15*%
X115900000Y-76100000D03*
X115900000Y-77650000D03*
%TD*%
D16*
%TO.C,C7*%
X110225000Y-91550000D03*
X111775000Y-91550000D03*
%TD*%
M02*
