%TF.GenerationSoftware,KiCad,Pcbnew,9.0.0*%
%TF.CreationDate,2025-08-18T13:12:07+03:00*%
%TF.ProjectId,RP2350A_Dev_board,52503233-3530-4415-9f44-65765f626f61,rev?*%
%TF.SameCoordinates,Original*%
%TF.FileFunction,Soldermask,Bot*%
%TF.FilePolarity,Negative*%
%FSLAX46Y46*%
G04 Gerber Fmt 4.6, Leading zero omitted, Abs format (unit mm)*
G04 Created by KiCad (PCBNEW 9.0.0) date 2025-08-18 13:12:07*
%MOMM*%
%LPD*%
G01*
G04 APERTURE LIST*
G04 Aperture macros list*
%AMRoundRect*
0 Rectangle with rounded corners*
0 $1 Rounding radius*
0 $2 $3 $4 $5 $6 $7 $8 $9 X,Y pos of 4 corners*
0 Add a 4 corners polygon primitive as box body*
4,1,4,$2,$3,$4,$5,$6,$7,$8,$9,$2,$3,0*
0 Add four circle primitives for the rounded corners*
1,1,$1+$1,$2,$3*
1,1,$1+$1,$4,$5*
1,1,$1+$1,$6,$7*
1,1,$1+$1,$8,$9*
0 Add four rect primitives between the rounded corners*
20,1,$1+$1,$2,$3,$4,$5,0*
20,1,$1+$1,$4,$5,$6,$7,0*
20,1,$1+$1,$6,$7,$8,$9,0*
20,1,$1+$1,$8,$9,$2,$3,0*%
%AMHorizOval*
0 Thick line with rounded ends*
0 $1 width*
0 $2 $3 position (X,Y) of the first rounded end (center of the circle)*
0 $4 $5 position (X,Y) of the second rounded end (center of the circle)*
0 Add line between two ends*
20,1,$1,$2,$3,$4,$5,0*
0 Add two circle primitives to create the rounded ends*
1,1,$1,$2,$3*
1,1,$1,$4,$5*%
G04 Aperture macros list end*
%ADD10RoundRect,0.250000X0.575000X-0.350000X0.575000X0.350000X-0.575000X0.350000X-0.575000X-0.350000X0*%
%ADD11O,1.650000X1.200000*%
%ADD12RoundRect,0.250000X-0.575000X0.350000X-0.575000X-0.350000X0.575000X-0.350000X0.575000X0.350000X0*%
%ADD13RoundRect,0.250000X-0.159099X1.035911X-1.035911X0.159099X0.159099X-1.035911X1.035911X-0.159099X0*%
%ADD14HorizOval,1.740000X-0.159099X0.159099X0.159099X-0.159099X0*%
%ADD15C,0.650000*%
%ADD16HorizOval,1.000000X-0.388909X-0.388909X0.388909X0.388909X0*%
%ADD17HorizOval,1.000000X-0.282843X-0.282843X0.282843X0.282843X0*%
%ADD18RoundRect,0.250000X0.350000X0.575000X-0.350000X0.575000X-0.350000X-0.575000X0.350000X-0.575000X0*%
%ADD19O,1.200000X1.650000*%
G04 APERTURE END LIST*
D10*
%TO.C,J1*%
X135330000Y-96705000D03*
D11*
X137330000Y-96705000D03*
X135330000Y-94705000D03*
X137330000Y-94705000D03*
X135330000Y-92705000D03*
X137330000Y-92705000D03*
X135330000Y-90705000D03*
X137330000Y-90705000D03*
X135330000Y-88705000D03*
X137330000Y-88705000D03*
X135330000Y-86705000D03*
X137330000Y-86705000D03*
X135330000Y-84705000D03*
X137330000Y-84705000D03*
X135330000Y-82705000D03*
X137330000Y-82705000D03*
X135330000Y-80705000D03*
X137330000Y-80705000D03*
X135330000Y-78705000D03*
X137330000Y-78705000D03*
X135330000Y-76705000D03*
X137330000Y-76705000D03*
X135330000Y-74705000D03*
X137330000Y-74705000D03*
%TD*%
D12*
%TO.C,J2*%
X105190000Y-74815000D03*
D11*
X103190000Y-74815000D03*
X105190000Y-76815000D03*
X103190000Y-76815000D03*
X105190000Y-78815000D03*
X103190000Y-78815000D03*
X105190000Y-80815000D03*
X103190000Y-80815000D03*
X105190000Y-82815000D03*
X103190000Y-82815000D03*
X105190000Y-84815000D03*
X103190000Y-84815000D03*
X105190000Y-86815000D03*
X103190000Y-86815000D03*
X105190000Y-88815000D03*
X103190000Y-88815000D03*
X105190000Y-90815000D03*
X103190000Y-90815000D03*
X105190000Y-92815000D03*
X103190000Y-92815000D03*
X105190000Y-94815000D03*
X103190000Y-94815000D03*
X105190000Y-96815000D03*
X103190000Y-96815000D03*
%TD*%
D13*
%TO.C,J3*%
X133239935Y-103991781D03*
D14*
X131443884Y-105787832D03*
X129647833Y-107583883D03*
X127851781Y-109379935D03*
%TD*%
D15*
%TO.C,J5*%
X107723414Y-109129509D03*
X111810491Y-113216586D03*
D16*
X107065804Y-107764793D03*
D17*
X104110098Y-110720499D03*
D16*
X113175207Y-113874196D03*
D17*
X110219501Y-116829902D03*
%TD*%
D18*
%TO.C,J4*%
X139110000Y-68730000D03*
D19*
X139110000Y-66730000D03*
X137110000Y-68730000D03*
X137110000Y-66730000D03*
X135110000Y-68730000D03*
X135110000Y-66730000D03*
X133110000Y-68730000D03*
X133110000Y-66730000D03*
X131110000Y-68730000D03*
X131110000Y-66730000D03*
X129110000Y-68730000D03*
X129110000Y-66730000D03*
X127110000Y-68730000D03*
X127110000Y-66730000D03*
X125110000Y-68730000D03*
X125110000Y-66730000D03*
X123110000Y-68730000D03*
X123110000Y-66730000D03*
X121110000Y-68730000D03*
X121110000Y-66730000D03*
X119110000Y-68730000D03*
X119110000Y-66730000D03*
X117110000Y-68730000D03*
X117110000Y-66730000D03*
%TD*%
M02*
